With: Rhys Ifans, Charlie Rowe en Bob Hoskins

Peter (Charlie Rowe) en zijn maatjes zijn een stel zakkenrollers die opgegroeid zijn in de straten van Londen. Dan worden ze opgetrommeld door hun mentor Jimmy Hook (Rhys Ifans) om een schat te stelen met magische krachten die hen naar een andere wereld transporteert. Deze andere wereld heet Neverland en is een rijk met jungles en legendarische mysteries van eeuwige jeugd. Daar worden ze geconfronteerd met een groep piraten geleid door de machtbeluste Elizabeth Bonny (Anna Friel) en een groep indianen, de Kaw Tribe genaamd.

Raised on the streets of turn-of-the century London, orphaned Peter and his pals survive by their fearless wits as cunning young pickpockets...

------------------------ Dutch Friends ------------------------
---------------------------------------------------------------
- Bezoek ook eens mijn vrienden op:  http://www.Film-Test.nl --
----- voor mijn Nederlandse Sync. ondertitels ---- en meer ----
------- http://www.Film-Test.nl ---- voor Films en meer -------
---------------------------------------------------------------

General:

Complete name                    : NeverlandPart01.avi
Format                           : AVI
Format/Info                      : Audio Video Interleave
File size                        : 1.21 GiB
Duration                         : 1h 21mn
Overall bit rate                 : 2 117 Kbps

Video:

Format                           : MPEG-4 Visual
Format profile                   : Simple@L3
Format settings, BVOP            : No
Format settings, QPel            : No
Format settings, GMC             : No warppoints
Format settings, Matrix          : Default (H.263)
Codec ID                         : XVID
Codec ID/Hint                    : XviD
Duration                         : 1h 21mn
Bit rate                         : 1 658 Kbps
Width                            : 652 pixels
Height                           : 352 pixels
Display aspect ratio             : 1.852
Frame rate                       : 25.000 fps
Color space                      : YUV
Chroma subsampling               : 4:2:0
Bit depth                        : 8 bits
Scan type                        : Progressive
Compression mode                 : Lossy
Bits/(Pixel*Frame)               : 0.289
Stream size                      : 972 MiB (78%)
Writing library                  : XviD 1.1.2 (UTC 2006-11-01)

Audio:

Format                           : AC-3
Format/Info                      : Audio Coding 3
Mode extension                   : CM (complete main)
Codec ID                         : 2000
Duration                         : 1h 21mn
Bit rate mode                    : Constant
Bit rate                         : 448 Kbps
Channel(s)                       : 6 channels
Channel positions                : Front: L C R, Side: L R, LFE
Sampling rate                    : 48.0 KHz
Bit depth                        : 16 bits
Compression mode                 : Lossy
Stream size                      : 263 MiB (21%)
Alignment                        : Aligned on interleaves
Interleave, duration             : 32 ms (0.80 video frame)
Interleave, preload duration     : 512 ms

